<svg xmlns="http://www.w3.org/2000/svg" xmlns:xlink="http://www.w3.org/1999/xlink" width="493" height="798" viewBox="0 0 493 798">
  <defs>
    <clipPath id="clip-message-states">
      <rect width="493" height="798"/>
    </clipPath>
  </defs>
  <g id="message-states" clip-path="url(#clip-message-states)">
    <rect width="493" height="798" fill="#21142d"/>
    <rect id="Rectangle_17" data-name="Rectangle 17" width="373" height="100" rx="20" transform="translate(58 96)" fill="#c72c41"/>
    <g id="Group_5" data-name="Group 5" transform="translate(-537 -273)">
      <text id="_" data-name="➞" transform="translate(931 462) rotate(-90)" fill="#2d142d" font-size="18" font-family="SegoeUISymbol, Segoe UI Symbol"><tspan x="0" y="19">➞</tspan></text>
    </g>
    <g id="Group_40" data-name="Group 40" transform="translate(-600 -177)">
      <text id="_2" data-name="➞" transform="translate(931 462) rotate(-90)" fill="#fff" font-size="36" font-family="SegoeUISymbol, Segoe UI Symbol"><tspan x="0" y="39">➞</tspan></text>
    </g>
    <text id="This_message_has_been_sent_but_not_yet_delivered_or_the_recipient_deactivated_delivery_confirmations" data-name="This message has been sent but not yet delivered or the recipient deactivated delivery confirmations" transform="translate(85 109)" fill="#fff" font-size="18" font-family="SegoeUI, Segoe UI"><tspan x="0" y="19">This message has been sent but not </tspan><tspan x="0" y="43">yet delivered or the recipient </tspan><tspan x="0" y="67">deactivated delivery confirmations</tspan></text>
    <text id="_12:36" data-name="12:36" transform="translate(355 187)" fill="#2d142d" font-size="18" font-family="SegoeUI, Segoe UI"><tspan x="0" y="0">12:36</tspan></text>
    <g id="Group_39" data-name="Group 39" transform="translate(-333 71)">
      <g id="Ellipse_11" data-name="Ellipse 11" transform="translate(653 156)" fill="none" stroke="#fff" stroke-width="4">
        <circle cx="36.5" cy="36.5" r="36.5" stroke="none"/>
        <circle cx="36.5" cy="36.5" r="34.5" fill="none"/>
      </g>
      <line id="Line_21" data-name="Line 21" x2="40" y2="40" transform="translate(715.5 213.5)" fill="none" stroke="#fff" stroke-width="5"/>
    </g>
    <path id="Path_4" data-name="Path 4" d="M6757.462-2113.826l74.417-56.694-14.771,89.34a52.393,52.393,0,0,0-1.39-15.384c.02.069-2.42-5.34-2.481-5.558-1.96-7.022-3.97-7.146-3.97-7.146l-9.131-9.032-13.6-4.367a97.539,97.539,0,0,0-17.17,1.754C6760.544-2119.141,6757.462-2113.826,6757.462-2113.826Z" transform="translate(-6425 2352)" fill="#fff"/>
    <rect id="Rectangle_15" data-name="Rectangle 15" width="373" height="70" rx="20" transform="translate(62 352)" fill="#c72c41"/>
    <g id="Group_4" data-name="Group 4" transform="translate(-537 -46)">
      <text id="_3" data-name="➞" transform="translate(931 462) rotate(-90)" fill="#2d142d" font-size="18" font-family="SegoeUISymbol, Segoe UI Symbol"><tspan x="0" y="19">➞</tspan></text>
      <text id="_4" data-name="➞" transform="translate(963 444) rotate(90)" fill="#2d142d" font-size="18" font-family="SegoeUISymbol, Segoe UI Symbol"><tspan x="0" y="19">➞</tspan></text>
    </g>
    <g id="Group_42" data-name="Group 42" transform="translate(-684 59)">
      <text id="_5" data-name="➞" transform="translate(1020 450) rotate(-90)" fill="#fff" font-size="36" font-family="SegoeUISymbol, Segoe UI Symbol"><tspan x="0" y="39">➞</tspan></text>
      <text id="_6" data-name="➞" transform="translate(1058 414) rotate(90)" fill="#fff" font-size="36" font-family="SegoeUISymbol, Segoe UI Symbol"><tspan x="0" y="39">➞</tspan></text>
    </g>
    <text id="This_message_has_been_sent_and_received_by_the_recipient" data-name="This message has been sent and received by the recipient" transform="translate(85 362)" fill="#fff" font-size="18" font-family="SegoeUI, Segoe UI"><tspan x="0" y="19">This message has been sent and </tspan><tspan x="0" y="43">received by the recipient</tspan></text>
    <text id="_12:36-2" data-name="12:36" transform="translate(355 414)" fill="#2d142d" font-size="18" font-family="SegoeUI, Segoe UI"><tspan x="0" y="0">12:36</tspan></text>
    <g id="Group_41" data-name="Group 41" transform="translate(-333 297)">
      <g id="Ellipse_11-2" data-name="Ellipse 11" transform="translate(653 156)" fill="none" stroke="#fff" stroke-width="4">
        <circle cx="36.5" cy="36.5" r="36.5" stroke="none"/>
        <circle cx="36.5" cy="36.5" r="34.5" fill="none"/>
      </g>
      <line id="Line_21-2" data-name="Line 21" x2="40" y2="40" transform="translate(715.5 213.5)" fill="none" stroke="#fff" stroke-width="5"/>
    </g>
    <path id="Path_5" data-name="Path 5" d="M6757.462-2113.826l74.417-56.694-14.771,89.34a52.393,52.393,0,0,0-1.39-15.384c.02.069-2.42-5.34-2.481-5.558-1.96-7.022-3.97-7.146-3.97-7.146l-9.131-9.032-13.6-4.367a97.539,97.539,0,0,0-17.17,1.754C6760.544-2119.141,6757.462-2113.826,6757.462-2113.826Z" transform="translate(-6425 2578)" fill="#fff"/>
    <rect id="Rectangle_46" data-name="Rectangle 46" width="373" height="62" rx="20" transform="translate(60 576)" fill="#c72c41"/>
    <text id="This_message_has_been_seen_by_the_receipient" data-name="This message has been seen by the receipient" transform="translate(78 583)" fill="#fff" font-size="18" font-family="SegoeUI, Segoe UI"><tspan x="0" y="19">This message has been seen by the </tspan><tspan x="0" y="43">receipient</tspan></text>
    <text id="_12:34" data-name="12:34" transform="translate(353 629)" fill="#2d142d" font-size="18" font-family="SegoeUI, Segoe UI"><tspan x="0" y="0">12:34</tspan></text>
    <path id="path6686" d="M10.034,245.145a2.271,2.271,0,0,1-2.318,2.221,2.223,2.223,0,1,1,0-4.442A2.271,2.271,0,0,1,10.034,245.145ZM7.72,240.521a9.477,9.477,0,0,0-4,.946A10.189,10.189,0,0,0,1,243.451a1.941,1.941,0,0,0,0,3.391,10.038,10.038,0,0,0,2.724,1.984,9.377,9.377,0,0,0,4,.946,9.523,9.523,0,0,0,4-.946,10.194,10.194,0,0,0,2.724-1.984,1.941,1.941,0,0,0,0-3.391,10.037,10.037,0,0,0-2.724-1.983A9.431,9.431,0,0,0,7.72,240.521Zm0,1.148a3.481,3.481,0,1,1,0,6.954,3.481,3.481,0,1,1,0-6.954Z" transform="translate(402 377.513)" fill="#2d142d"/>
    <path id="path6686-2" data-name="path6686" d="M24.943,252.017a5.646,5.646,0,0,1-5.763,5.521,5.526,5.526,0,1,1,0-11.042A5.646,5.646,0,0,1,24.943,252.017Zm-5.752-11.5a23.559,23.559,0,0,0-9.944,2.353,25.33,25.33,0,0,0-6.771,4.93A8.357,8.357,0,0,0,0,252.018c.024,1.412,1.539,3.156,2.475,4.214a24.954,24.954,0,0,0,6.771,4.931,23.311,23.311,0,0,0,9.944,2.353,23.676,23.676,0,0,0,9.943-2.353,25.342,25.342,0,0,0,6.772-4.931,8.357,8.357,0,0,0,2.475-4.214c-.024-1.412-1.539-3.156-2.475-4.214a24.953,24.953,0,0,0-6.772-4.93A23.444,23.444,0,0,0,19.191,240.521Zm0,2.854a8.653,8.653,0,1,1,0,17.288,8.653,8.653,0,1,1,0-17.288Z" transform="translate(341 453.513)" fill="#fff"/>
    <g id="Group_38" data-name="Group 38" transform="translate(-330 512)">
      <g id="Ellipse_11-3" data-name="Ellipse 11" transform="translate(653 156)" fill="none" stroke="#fff" stroke-width="4">
        <circle cx="36.5" cy="36.5" r="36.5" stroke="none"/>
        <circle cx="36.5" cy="36.5" r="34.5" fill="none"/>
      </g>
      <line id="Line_21-3" data-name="Line 21" x2="40" y2="40" transform="translate(715.5 213.5)" fill="none" stroke="#fff" stroke-width="5"/>
    </g>
    <path id="Path_3" data-name="Path 3" d="M6757.462-2113.826l74.417-56.694-14.771,89.34a52.393,52.393,0,0,0-1.39-15.384c.02.069-2.42-5.34-2.481-5.558-1.96-7.022-3.97-7.146-3.97-7.146l-9.131-9.032-13.6-4.367a97.539,97.539,0,0,0-17.17,1.754C6760.544-2119.141,6757.462-2113.826,6757.462-2113.826Z" transform="translate(-6422 2793)" fill="#fff"/>
  </g>
</svg>
